<svg id="Layer_1" height="512" viewBox="0 0 64 64" width="512" xmlns="http://www.w3.org/2000/svg" xmlns:xlink="http://www.w3.org/1999/xlink" data-name="Layer 1"><linearGradient id="linear-gradient" gradientUnits="userSpaceOnUse" x1="7.536" x2="52.95" y1="62.364" y2="16.95"><stop offset="0" stop-color="#d7e6f9"/><stop offset="1" stop-color="#ccd3dd"/></linearGradient><linearGradient id="linear-gradient-2" gradientUnits="userSpaceOnUse" x1="36.101" x2="55.899" y1="55.899" y2="36.101"><stop offset="0" stop-color="#77f969"/><stop offset="1" stop-color="#03dd03"/></linearGradient><linearGradient id="linear-gradient-3" gradientUnits="userSpaceOnUse" x1="15.293" x2="48.707" y1="35.293" y2="1.879"><stop offset="0" stop-color="#f95555"/><stop offset="1" stop-color="#d81d1d"/></linearGradient><path d="m4 24h56a0 0 0 0 1 0 0v22a14 14 0 0 1 -14 14h-40a2 2 0 0 1 -2-2v-34a0 0 0 0 1 0 0z" fill="url(#linear-gradient)"/><circle cx="46" cy="46" fill="url(#linear-gradient-2)" r="14"/><path d="m6 12h52a2 2 0 0 1 2 2v10a0 0 0 0 1 0 0h-56a0 0 0 0 1 0 0v-10a2 2 0 0 1 2-2z" fill="url(#linear-gradient-3)"/><path d="m10 29h4v2h-4z"/><path d="m20 29h4v2h-4z"/><path d="m10 37h4v2h-4z"/><path d="m20 37h4v2h-4z"/><path d="m10 45h4v2h-4z"/><path d="m20 45h4v2h-4z"/><path d="m10 53h4v2h-4z"/><path d="m20 53h4v2h-4z"/><path d="m30 29h4v2h-4z"/><path d="m58 11h-1v-5a3 3 0 0 0 -6 0v5h-8v-5a3 3 0 0 0 -6 0v5h-10v-5a3 3 0 0 0 -6 0v5h-8v-5a3 3 0 0 0 -6 0v5h-1a3 3 0 0 0 -3 3v44a3 3 0 0 0 3 3h40a15.017 15.017 0 0 0 15-15v-32a3 3 0 0 0 -3-3zm-5-5a1 1 0 0 1 2 0v5h-2zm-14 0a1 1 0 0 1 2 0v5h-2zm-16 0a1 1 0 0 1 2 0v5h-2zm-14 0a1 1 0 0 1 2 0v5h-2zm37 53a13 13 0 1 1 8.566-22.754l-10.674 14.232-5.185-5.185-1.414 1.414 6.815 6.815 11.876-15.834a12.99 12.99 0 0 1 -9.984 21.312zm13-20.451a14.988 14.988 0 1 0 -20.451 20.451h-32.549a1 1 0 0 1 -1-1v-33h54zm0-15.549h-54v-9a1 1 0 0 1 1-1h5v3a1 1 0 0 1 -1 1h-2v2h2a3 3 0 0 0 3-3v-3h12v3a1 1 0 0 1 -1 1h-2v2h2a3 3 0 0 0 3-3v-3h14v3a1 1 0 0 1 -1 1h-2v2h2a3 3 0 0 0 3-3v-3h12v3a1 1 0 0 1 -1 1h-2v2h2a3 3 0 0 0 3-3v-3h1a1 1 0 0 1 1 1z"/></svg>