<svg height="682pt" viewBox="-21 -123 682.66669 682" width="682pt" xmlns="http://www.w3.org/2000/svg"><path d="m552.089844 223.480469v205.488281h-464.179688v-205.488281h37.5v167.988281h175.839844v-99.363281h37.5v99.363281h175.839844v-167.988281zm0 0" fill="#fcbe00"/><path d="m552.089844 223.480469v205.488281h-232.089844v-136.863281h18.75v99.363281h175.839844v-167.988281zm0 0" fill="#ff9e00"/><path d="m213.335938 181.324219v71.730469h-213.335938v-71.730469c0-35.332031 28.742188-64.074219 64.078125-64.074219h9.820313c-19.917969-11.445312-33.367188-32.925781-33.367188-57.484375 0-36.5 29.664062-66.203125 66.144531-66.265625h.121094c36.53125 0 66.257813 29.726562 66.257813 66.265625 0 24.558594-13.445313 46.039063-33.363282 57.484375h9.566406c35.332032 0 64.078126 28.742188 64.078126 64.074219zm0 0" fill="#345795"/><path d="m213.335938 181.324219v71.730469h-106.660157v-259.554688h.121094c36.53125 0 66.257813 29.726562 66.257813 66.265625 0 24.558594-13.445313 46.039063-33.363282 57.484375h9.566406c35.332032 0 64.078126 28.742188 64.078126 64.074219zm0 0" fill="#1a3459"/><path d="m426.664062 181.324219v115.902343h-213.335937v-115.902343c0-35.332031 28.746094-64.074219 64.078125-64.074219h9.824219c-19.917969-11.445312-33.363281-32.925781-33.363281-57.484375 0-36.5 29.664062-66.203125 66.136718-66.265625h.121094c36.539062 0 66.265625 29.726562 66.265625 66.265625 0 24.558594-13.445313 46.039063-33.363281 57.484375h9.566406c35.332031 0 64.070312 28.742188 64.070312 64.074219zm0 0" fill="#345795"/><path d="m426.664062 181.324219v115.902343h-106.660156v-303.726562h.121094c36.539062 0 66.265625 29.726562 66.265625 66.265625 0 24.558594-13.445313 46.039063-33.363281 57.484375h9.566406c35.332031 0 64.070312 28.742188 64.070312 64.074219zm0 0" fill="#1a3459"/><path d="m640 181.324219v71.730469h-213.335938v-71.730469c0-35.332031 28.746094-64.074219 64.078126-64.074219h9.820312c-19.914062-11.445312-33.367188-32.925781-33.367188-57.484375 0-36.5 29.671876-66.203125 66.144532-66.265625h.121094c36.539062 0 66.265624 29.726562 66.265624 66.265625 0 24.558594-13.453124 46.039063-33.363281 57.484375h9.558594c35.335937 0 64.078125 28.742188 64.078125 64.074219zm0 0" fill="#345795"/><path d="m640 181.324219v71.730469h-106.660156v-259.554688h.121094c36.539062 0 66.265624 29.726562 66.265624 66.265625 0 24.558594-13.453124 46.039063-33.363281 57.484375h9.558594c35.335937 0 64.078125 28.742188 64.078125 64.074219zm0 0" fill="#1a3459"/></svg>