<svg id="_x31__x2C_5" enable-background="new 0 0 24 24" height="512" viewBox="0 0 24 24" width="512" xmlns="http://www.w3.org/2000/svg"><path d="m15.17 9.76c-.56-1.19-1.77-2.01-3.17-2.01-1.77 0-3.22 1.3-3.46 3h-.04c-1.24 0-2.25 1.01-2.25 2.25s1.01 2.25 2.25 2.25h6.5c1.52 0 2.75-1.23 2.75-2.75 0-1.46-1.14-2.66-2.58-2.74z" fill="#00bcd4"/><path d="m15 16h-6.5c-1.654 0-3-1.346-3-3 0-1.458 1.044-2.675 2.424-2.945.52-1.777 2.178-3.055 4.076-3.055 1.499 0 2.885.797 3.643 2.063 1.633.298 2.857 1.731 2.857 3.437 0 1.93-1.57 3.5-3.5 3.5zm-3-7.5c-1.36 0-2.528 1.012-2.717 2.354-.053.371-.369.646-.743.646-.867 0-1.54.673-1.54 1.5s.673 1.5 1.5 1.5h6.5c1.103 0 2-.897 2-2 0-1.059-.824-1.933-1.876-1.991-.276-.016-.521-.181-.638-.432-.447-.958-1.423-1.577-2.486-1.577z"/><path d="m2.8 24c-.411 0-.745-.33-.75-.742l-.05-4.5c-.002-.2.076-.393.217-.536.14-.142.333-.222.533-.222h4.5c.414 0 .75.336.75.75s-.336.75-.75.75h-3.742l.042 3.742c.005.414-.327.753-.741.758-.003 0-.006 0-.009 0z"/><path d="m21.25 6h-4.5c-.414 0-.75-.336-.75-.75s.336-.75.75-.75h3.75v-3.75c0-.414.336-.75.75-.75s.75.336.75.75v4.5c0 .414-.336.75-.75.75z"/><path d="m1.229 16c-.322 0-.62-.209-.718-.534-.339-1.128-.511-2.294-.511-3.466 0-6.617 5.383-12 12-12 3.69 0 7.108 1.653 9.379 4.536.256.325.2.797-.125 1.053-.324.256-.797.2-1.053-.125-1.985-2.519-4.973-3.964-8.201-3.964-5.79 0-10.5 4.71-10.5 10.5 0 1.025.151 2.046.448 3.034.119.396-.105.815-.502.935-.072.021-.145.031-.217.031z"/><path d="m12 24c-3.69 0-7.108-1.653-9.379-4.536-.256-.325-.2-.797.125-1.053.325-.255.796-.201 1.053.125 1.985 2.519 4.973 3.964 8.201 3.964 5.79 0 10.5-4.71 10.5-10.5 0-1.025-.151-2.046-.448-3.034-.119-.396.105-.815.502-.935.396-.118.815.106.935.502.339 1.129.511 2.295.511 3.467 0 6.617-5.383 12-12 12z"/></svg>