<svg id="Capa_1" enable-background="new 0 0 512 512" height="512" viewBox="0 0 512 512" width="512" xmlns="http://www.w3.org/2000/svg"><g><path d="m512 256c0 98.814-55.985 184.551-137.965 227.224-35.319 18.384-75.463 14.211-118.035 14.211s-82.715 4.173-118.035-14.211c-81.98-42.673-137.965-128.41-137.965-227.224 0-19.324 14.82-29.758 18.878-46.754 25.632-107.355 115.062-175.031 237.122-175.031 126.07 0 218.161 59.568 239.382 179.548 2.578 14.574 16.618 26.922 16.618 42.237z" fill="#00516a"/><path d="m258.411 9.61c-5.19 0-12.75 17.627-17.864 17.931 134.188 7.992 240.548 92.264 240.548 228.459 0 88.06-44.465 165.728-112.167 211.788-37.006 25.177-76.631 26.001-124.056 28.825 5.114.304 10.115 3.189 15.305 3.189 42.571 0 78.538 1.807 113.857-16.578 81.981-42.673 137.966-128.41 137.966-227.224 0-16.674-13.633-26.688-16.618-42.237-22.325-116.301-112.26-204.153-236.971-204.153z" fill="#004651"/><path d="m128.07 34.215c-.022.026-.048.056-.07.082 5.011 8.679-1.314 27.002 3.696 35.682 6.206 10.75 23.749 11.856 29.956 22.606 5.857 6.307 38.13 39.814 90.708 41.299 56.892 1.606 92.641-35.55 97.988-41.299l29.398-22.008 4.254-36.28c-.021-.025-.049-.056-.071-.082-37.639-21.758-81.328-34.215-127.929-34.215s-90.291 12.457-127.93 34.215z" fill="#ffe967"/><path d="m383.929 34.215c.022.026.05.058.071.082l-33.652 58.287 94.348 163.416h67.304c0-94.784-51.515-177.531-128.071-221.785z" fill="#fe646f"/><path d="m383.929 34.215c.022.026.05.058.071.082l-8.425 14.593c63.95 46.536 105.52 121.965 105.52 207.11h30.905c0-94.784-51.515-177.531-128.071-221.785z" fill="#fd4755"/><path d="m384 34.297c-.021-.025-.049-.056-.071-.082-.002-.001-.004-.003-.006-.004-37.637-21.755-81.324-34.211-127.923-34.211-5.19 0-10.339.173-15.453.477 50.298 2.995 96.685 20.512 135.027 48.413z" fill="#ffd037"/><path d="" style="fill:none;stroke:#000;stroke-width:15;stroke-linecap:round;stroke-linejoin:round;stroke-miterlimit:10"/><path d="m145.237 157.064c10.144-24.368 14.535-46.828 16.415-64.48-11.217-19.429-22.435-38.858-33.652-58.287-.012-.007-.024-.013-.035-.02-76.497 44.27-127.965 126.983-127.965 221.723h67.304c19.923-14.891 56.076-46.432 77.933-98.936z" fill="#85e994"/><circle cx="256" cy="256" fill="#fff" r="188.696"/><path d="m247.387 285.118 15.667-56.965-127.812-12.944c-9.24-.936-12.728 11.749-4.31 15.67z" fill="#fe646f"/><circle cx="256" cy="256" fill="#00516a" r="42.237"/><path d="m256 213.763c-5.456 0-10.665 1.046-15.453 2.93 15.68 6.17 26.785 21.437 26.785 39.308s-11.104 33.138-26.785 39.308c4.788 1.884 9.996 2.93 15.453 2.93 23.327 0 42.237-18.91 42.237-42.237s-18.91-42.239-42.237-42.239z" fill="#004651"/><path d="m137.972 483.211c35.32 18.385 75.456 28.789 118.028 28.789s82.708-10.404 118.028-28.789l-28.849-87.166c-4.187-12.652-16.013-21.195-29.34-21.195h-119.678c-13.327 0-25.153 8.543-29.34 21.195z" fill="#fe646f"/><path d="m374.028 483.211-5.109-15.437c-37.006 25.177-80.946 40.924-128.372 43.748 5.114.305 10.263.478 15.453.478 42.572 0 82.708-10.404 118.028-28.789z" fill="#fd4755"/><g><g><path d="m301.66 435.767h-91.32c-4.268 0-7.726-3.459-7.726-7.726s3.459-7.726 7.726-7.726h91.32c4.268 0 7.726 3.459 7.726 7.726 0 4.266-3.458 7.726-7.726 7.726z" fill="#fff"/></g><g><path d="m286.207 466.672h-60.414c-4.268 0-7.726-3.459-7.726-7.726s3.459-7.726 7.726-7.726h60.414c4.268 0 7.726 3.459 7.726 7.726.001 4.267-3.458 7.726-7.726 7.726z" fill="#fff"/></g></g><path d="m345.179 396.046c-4.187-12.652-16.013-21.195-29.34-21.195h-30.905c13.327 0 25.153 8.543 29.34 21.195l24.6 74.328c2.493 7.534-1.139 15.7-8.368 18.971-27.708 12.539-58.045 20.292-89.958 22.194 5.111.304 10.263.461 15.452.461 42.572 0 82.708-10.404 118.028-28.789z" fill="#fd4755"/></g></svg>