<?xml version="1.0" encoding="UTF-8"?>
<svg xmlns="http://www.w3.org/2000/svg" width="512" height="512" viewBox="0 0 128 128"><g><g><path d="M64,31.872h0A62.052,62.052,0,0,1,86.8,36.2V6.747a5,5,0,0,0-5-5H46.2a5,5,0,0,0-5,5V36.2A62.052,62.052,0,0,1,64,31.872Z" fill="#bfe85f"/><circle cx="64" cy="110.622" r="15.625" fill="#ffda44"/><circle cx="64" cy="110.622" r="7.625" fill="#ffb655"/><g><path d="M78.067,26.686H69.081a4.349,4.349,0,0,1-4.344-4.344V12.655a4.349,4.349,0,0,1,4.344-4.344h8.986a1.75,1.75,0,0,1,0,3.5H69.081a.845.845,0,0,0-.844.844v9.687a.845.845,0,0,0,.844.844h7.236V20.563a.845.845,0,0,0-.843-.844h-2.5a1.75,1.75,0,0,1,0-3.5h2.5a4.348,4.348,0,0,1,4.343,4.344v4.373A1.749,1.749,0,0,1,78.067,26.686Z" fill="#6fbe6b"/><path d="M55.636,26.686h-5.7a1.75,1.75,0,0,1,0-3.5h5.7a2.645,2.645,0,0,0,0-5.289h-5.7a1.75,1.75,0,0,1-1.75-1.75V10.061a1.75,1.75,0,0,1,1.75-1.75h10.1a1.75,1.75,0,0,1,0,3.5H51.683V14.4h3.953a6.145,6.145,0,0,1,0,12.289Z" fill="#6fbe6b"/></g><path d="M64,31.872h0A62.25,62.25,0,0,0,1.75,94.122v16.5H48.375a15.625,15.625,0,0,1,31.25,0H126.25v-16.5A62.25,62.25,0,0,0,64,31.872Z" fill="#5e35b1"/><path d="M42.074,70.5A32.145,32.145,0,0,1,60,62.129V42.04A52.105,52.105,0,0,0,26.69,57.593Z" fill="#36c6ff"/><path d="M68,62.129A32.139,32.139,0,0,1,85.926,70.5L101.31,57.593A52.105,52.105,0,0,0,68,42.04Z" fill="#bfe85f"/><path d="M21.546,63.72a51.95,51.95,0,0,0-9.8,30.4v6.5h20v-6.5a32.051,32.051,0,0,1,5.178-17.494Z" fill="#ede7f6"/><path d="M68.5,95.663a15.646,15.646,0,0,1,10.455,10.455l21.148-31.6Z" fill="#311b8c"/><path d="M106.454,63.721,91.072,76.628A32.407,32.407,0,0,1,92.7,79.474l7.411-4.959-5.792,8.656A32.025,32.025,0,0,1,96.25,94.122v6.5h20v-6.5A51.945,51.945,0,0,0,106.454,63.721Z" fill="#ffb655"/></g><g><path d="M54.625,110.622A9.375,9.375,0,1,0,64,101.247,9.386,9.386,0,0,0,54.625,110.622Zm15.25,0A5.875,5.875,0,1,1,64,104.747,5.882,5.882,0,0,1,69.875,110.622Z"/><path d="M69.081,26.686h8.986a1.749,1.749,0,0,0,1.75-1.75V20.563a4.348,4.348,0,0,0-4.343-4.344h-2.5a1.75,1.75,0,0,0,0,3.5h2.5a.845.845,0,0,1,.843.844v2.623H69.081a.845.845,0,0,1-.844-.844V12.655a.845.845,0,0,1,.844-.844h8.986a1.75,1.75,0,0,0,0-3.5H69.081a4.349,4.349,0,0,0-4.344,4.344v9.687A4.349,4.349,0,0,0,69.081,26.686Z"/><path d="M60.03,11.811a1.75,1.75,0,0,0,0-3.5h-10.1a1.75,1.75,0,0,0-1.75,1.75v6.086a1.75,1.75,0,0,0,1.75,1.75h5.7a2.645,2.645,0,0,1,0,5.289h-5.7a1.75,1.75,0,0,0,0,3.5h5.7a6.145,6.145,0,0,0,0-12.289H51.683V11.811Z"/><path d="M88.548,35.025V6.747A6.758,6.758,0,0,0,81.8,0H46.2a6.757,6.757,0,0,0-6.75,6.75V35.025A64.092,64.092,0,0,0,0,94.122v16.5a1.75,1.75,0,0,0,1.75,1.75H46.714a17.383,17.383,0,0,0,24.5,14.061,1.75,1.75,0,0,0-1.455-3.184A13.751,13.751,0,0,1,64,124.5a13.87,13.87,0,1,1,12.062-7.014,1.751,1.751,0,0,0,3.041,1.735,17.35,17.35,0,0,0,2.175-6.846H126.25a1.749,1.749,0,0,0,1.75-1.75v-16.5A64.093,64.093,0,0,0,88.548,35.025ZM42.953,6.747A3.254,3.254,0,0,1,46.2,3.5H81.8a3.254,3.254,0,0,1,3.25,3.25V33.7a63.779,63.779,0,0,0-42.095,0Zm53.3,76.672,5.306-7.93a1.75,1.75,0,0,0-2.427-2.428l-5.374,3.6L106.106,66.3A50.046,50.046,0,0,1,114.5,94.122v4.75H98v-4.75A33.684,33.684,0,0,0,96.254,83.419Zm-2.585-2.49h0l.071-.048L79.322,102.428A17.612,17.612,0,0,0,72.194,95.3ZM124.5,108.872H81.287a17.008,17.008,0,0,0-.44-2.429L93.7,87.239a30.126,30.126,0,0,1,.8,6.883v6.5a1.749,1.749,0,0,0,1.75,1.75h20a1.749,1.749,0,0,0,1.75-1.75v-6.5A53.564,53.564,0,0,0,107.876,62.7a1.75,1.75,0,0,0-2.547-.32L89.946,75.287A1.75,1.75,0,0,0,89.6,77.58c.264.407.529.847.8,1.324L68.18,93.774c-9.881-2.746-20.649,4.911-21.468,15.1H3.5V94.122a60.5,60.5,0,0,1,121,0Z"/><path d="M40.33,49.313a1.743,1.743,0,0,0,.794-.192c1.421-.724,2.9-1.391,4.386-1.978a1.75,1.75,0,0,0-1.286-3.256c-1.593.629-3.17,1.341-4.691,2.117a1.75,1.75,0,0,0,.8,3.309Z"/><path d="M59.868,40.3a54.317,54.317,0,0,0-6.577.909,1.751,1.751,0,0,0,.693,3.432c1.4-.284,2.832-.509,4.266-.672V60.618A33.678,33.678,0,0,0,42.041,68.19L29.29,57.49a51.168,51.168,0,0,1,4.233-3.6,1.75,1.75,0,0,0-2.117-2.788,54.744,54.744,0,0,0-5.967,5.262,1.752,1.752,0,0,0,.126,2.566L40.949,71.842a1.751,1.751,0,0,0,2.316-.059,30.267,30.267,0,0,1,16.951-7.918,1.749,1.749,0,0,0,1.534-1.736V42.041a1.747,1.747,0,0,0-.561-1.283A1.769,1.769,0,0,0,59.868,40.3Z"/><path d="M68.133,40.3a1.75,1.75,0,0,0-1.883,1.745V62.129a1.749,1.749,0,0,0,1.534,1.736,30.259,30.259,0,0,1,16.951,7.919,1.752,1.752,0,0,0,2.317.059l15.383-12.909a1.749,1.749,0,0,0,.125-2.566A53.913,53.913,0,0,0,68.133,40.3ZM85.959,68.19A33.674,33.674,0,0,0,69.75,60.618V43.965A50.414,50.414,0,0,1,98.711,57.489Z"/><path d="M22.671,62.38a1.75,1.75,0,0,0-2.547.32A53.56,53.56,0,0,0,10,94.122v6.5a1.75,1.75,0,0,0,1.75,1.75h20a1.75,1.75,0,0,0,1.75-1.75v-6.5A30.337,30.337,0,0,1,38.4,77.58a1.751,1.751,0,0,0-.343-2.293ZM30,94.122v4.75H13.5v-4.75A50.04,50.04,0,0,1,21.893,66.3L34.646,77A33.817,33.817,0,0,0,30,94.122Z"/></g></g></svg>
