<svg height="512" viewBox="0 0 60 60" width="512" xmlns="http://www.w3.org/2000/svg"><g id="Page-1" fill="none" fill-rule="evenodd"><g id="056---Load-Time-Performance"><path id="Path" d="m31.05 55h-27.05c-1.65685425 0-3-1.3431458-3-3s1.34314575-3 3-3h22.51c.8410918 1.8708081 2.0170872 3.572104 3.47 5.02.34.34.7.67 1.07.98z" fill="#9d9d9d"/><path id="Path" d="m29.98 54.02c-1.4529128-1.447896-2.6289082-3.1491919-3.47-5.02h-3c.8410918 1.8708081 2.0170872 3.572104 3.47 5.02.34.34.7.67 1.07.98h3c-.37-.31-.73-.64-1.07-.98z" fill="#707070"/><path id="Path" d="m37 4c0 1.65685425-1.3431458 3-3 3h-30c-1.65685423-.00000002-2.99999996-1.34314577-2.99999996-3s1.34314573-2.99999998 2.99999996-3h30c1.6568542 0 3 1.34314575 3 3z" fill="#9d9d9d"/><path id="Path" d="m36.12 1.88c-.5616324-.56342275-1.3244649-.88007021-2.12-.88l-3-.00000001c1.6568542.00000001 3 1.34314576 3 3.00000001s-1.3431458 3-3 3h3c1.2125666-.00106654 2.305263-.73198021 2.7691479-1.85230595.4638849-1.12032573.2077333-2.40974677-.6491479-3.26769405z" fill="#707070"/><path id="Path" d="m25 42c-.0041802 2.4145886.5107878 4.8018575 1.51 7h-21.51v-6c0-12 14-15 14-15 3.2697864.8087974 6.3240011 2.3205483 8.95 4.43-1.9285702 2.8182358-2.9571642 6.1550645-2.95 9.57z" fill="#02a8f3"/><path id="Path" d="m27.95 32.43c-2.6259989-2.1094517-5.6802136-3.6212026-8.95-4.43 0 0-.582.127-1.5.424 2.7121222.8574041 5.2392093 2.2162646 7.45 4.006-3.3353756 4.8947751-3.8809991 11.1732346-1.44 16.57h3c-2.4409991-5.3967654-1.8953756-11.6752249 1.44-16.57z" fill="#0377bb"/><path id="Path" d="m33 7v6c0 12-14 15-14 15s-14-3-14-15v-6z" fill="#02a8f3"/><path id="Path" d="m30 7v6c0 9.566-8.891 13.41-12.5 14.577.918.3 1.5.423 1.5.423s14-3 14-15v-6z" fill="#0377bb"/><path id="Path" d="m59.0000242 42c.0076025 4.5101149-1.7849772 8.8367832-4.9800242 12.02l-3.56-3.56c-.3674877-.3555272-.4022221-.9329864-.08-1.33 1.6918142-1.9904237 2.620497-4.5177172 2.62-7.13z" fill="#60a817"/><path id="Path" d="m56 42c.0031659 3.7748619-1.2590664 7.4418492-3.585 10.415l1.605 1.605c3.195047-3.1832168 4.9876267-7.5098851 4.9800242-12.02z" fill="#549314"/><path id="Path" d="m54.02 54.02c-6.2398958 6.2432502-16.2210188 6.6690882-22.97.98-.37-.31-.73-.64-1.07-.98l3.57-3.57c.3619332-.3606672.3879877-.9382085.06-1.33-1.6887351-1.9876045-2.61406-4.5118625-2.61-7.12 0-.3.01-.61.04-.91.4885651-5.4812316 4.9255814-9.77347 10.42-10.08.18-.01.36-.01.54-.01 4.2896572-.0014268 8.1888365 2.4909438 9.9886314 6.3847721s1.1718468 8.4787157-1.6086314 11.7452279c-.3222221.3970136-.2874877.9744728.08 1.33z" fill="#607d8a"/><path id="Path" d="m59.0000242 42h-6.0000242c.0028399-2.9181233-1.1557353-5.7174136-3.22-7.78l4.24-4.24c3.195047 3.1832168 4.9876267 7.5098851 4.9800242 12.02z" fill="#a3c300"/><path id="Path" d="m54.02 29.98-1.605 1.605c2.3259336 2.9731508 3.5881659 6.6401381 3.585 10.415h3.0000242c.0076025-4.5101149-1.7849772-8.8367832-4.9800242-12.02z" fill="#8fab00"/><path id="Path" d="m54.02 29.98-4.24 4.24c-2.0625864-2.0642647-4.8618767-3.2228399-7.78-3.22v-6.0000242c4.5101149-.0076025 8.8367832 1.7849772 12.02 4.9800242z" fill="#ffdb00"/><path id="Path" d="m42 24.9999758v6.0000242c-.18 0-.36 0-.54.01-2.7239014.1442387-5.2970557 1.2953866-7.22 3.23l-4.26-4.26c3.1832168-3.195047 7.5098851-4.9876267 12.02-4.9800242z" fill="#ff9701"/><path id="Path" d="m34.24 34.24c-1.849763 1.8284191-2.9847546 4.2580106-3.2 6.85-.03.3-.04.61-.04.91h-6.0000001c-.0005567-4.5087116 1.7909439-8.8327753 4.9800001-12.02z" fill="#ff5722"/><path id="Path" d="m33.55 50.45-3.57 3.57c-3.1870081-3.1885934-4.9781408-7.5117692-4.98-12.02h6c-.00406 2.6081375.9212649 5.1323955 2.61 7.12.3279877.3917915.3019332.9693328-.06 1.33z" fill="#f34335"/><circle id="Oval" cx="42" cy="42" fill="#f34335" r="4"/><path id="Shape" d="m42 24c-5.5733662.0043141-10.828984 2.5955487-14.226 7.014-1.6940805-1.2509626-3.5487024-2.2684147-5.514-3.025 4.33-1.721 11.74-5.98 11.74-14.989v-5c2.209139 0 4-1.790861 4-4s-1.790861-4-4-4h-30c-2.209139 0-4 1.790861-4 4s1.790861 4 4 4v5c0 9.028 7.442 13.287 11.768 15-4.326 1.713-11.768 5.972-11.768 15v5c-2.209139 0-4 1.790861-4 4s1.790861 4 4 4h26.712c7.1325489 5.7764863 17.4741703 5.2402285 23.971-1.243.014-.012.031-.016.045-.029s.017-.031.029-.045c5.1308853-5.1519956 6.6557336-12.886189 3.8642964-19.6001238-2.7914371-6.7139348-9.3501876-11.087229-16.6212964-11.0828762zm11.977 28.573-2.836-2.8c1.6202563-1.9097402 2.604311-4.2774143 2.815-6.773h3.993c-.2186938 3.5448215-1.6168795 6.9146181-3.972 9.573zm-.027-11.573c-.1957156-2.4865283-1.1722087-4.8476115-2.79-6.746l2.822-2.822c2.3522141 2.6577753 3.7485312 6.0255499 3.967 9.568zm-6.565-11.923c-.2447927-.1021296-.5201322-.1028221-.7654356-.0019252-.2453034.100897-.4404725.2951167-.5425644.5399252l-.4.968c-.8690076-.2792966-1.7672334-.4578009-2.677-.532v-4c3.5424501.2184688 6.9102247 1.6147859 9.568 3.967l-2.831 2.831c-.6805652-.5808804-1.423832-1.0839942-2.216-1.5l.4-.965c.212241-.5089325-.0275415-1.0936259-.536-1.307zm-17.367 23.491c-2.3522141-2.6577753-3.7485312-6.0255499-3.967-9.568h4c.1981744 2.4853229 1.1724056 4.8455158 2.785 6.747zm.023-11.568h-3.99c.2184688-3.5424501 1.6147859-6.9102247 3.967-9.568l2.855 2.855c-1.626607 1.884079-2.6176063 4.2331534-2.832 6.713zm4.25-8.123-2.859-2.859c2.6577753-2.3522141 6.0255499-3.7485312 9.568-3.967v4c-2.4759998.2205924-4.8213988 1.2085336-6.709 2.826zm-32.291-28.877c0-1.1045695.8954305-2 2-2h30c1.1045695 0 2 .8954305 2 2s-.8954305 2-2 2h-30c-1.1045695 0-2-.8954305-2-2zm4 9v-5h26v5c0 10.4-11.248 13.547-13 13.974-1.752-.427-13-3.574-13-13.974zm0 30c0-10.392 11.231-13.542 13-13.973 2.7529106.7239483 5.345696 1.9575904 7.644 3.637-2.8373774 4.6030879-3.4240783 10.247784-1.594 15.336h-19.05zm-3.413 10.413c-.5709737-.5719529-.74161155-1.4313318-.4324705-2.1780398s1.03729968-1.2339804 1.8454705-1.2349602h21.9c.7234909 1.4495774 1.6390667 2.7950231 2.722 4.0000029l-24.622-.0000029c-.53049528.0009053-1.0393029-.2104677-1.413-.587zm28.845.569 2.821-2.821c.7268146-.7298282.780481-1.8923116.124-2.686-1.7210656-2.0247733-2.5645838-4.6517711-2.344-7.3.4659473-4.9735297 4.4905011-8.8634646 9.477-9.16 1.1463923-.0533385 2.2934236.0907592 3.391.426l-1.941 4.659c-2.5192459-.4922312-5.0019767 1.0031448-5.7448451 3.4601833-.7428683 2.4570386.495481 5.077457 2.8654435 6.0634436 2.3699624.9859865 5.1015463.0171979 6.3206715-2.2417013 1.2191253-2.2588991.5297027-5.0740009-1.5952699-6.5139256l1.94-4.657c2.6571146 1.4304597 4.5251405 3.9854557 5.0822633 6.9512756.5571229 2.9658198-.2563795 6.024535-2.2132633 8.3217244-.6510297.7951195-.5935287 1.9542189.133 2.681l2.82 2.82c-6.0269288 5.3572378-15.1090712 5.3572378-21.136 0zm10.183-11.059c.1218818.0511905.2528051.0773751.385.077.4035796.0000337.7676219-.2425297.923-.615l1.083-2.6c1.0609056.972152 1.2782266 2.5623846.5170583 3.783541-.7611684 1.2211565-2.2846026 1.7263456-3.624612 1.2019651-1.3400095-.5243806-2.1159406-1.9293713-1.8461246-3.3428066.269816-1.4134354 1.5087332-2.4338041 2.9476783-2.4276995.055 0 .106.013.16.016l-1.083 2.6c-.212009.5094834.0287615 1.0944035.538 1.307z" fill="#000" fill-rule="nonzero"/><g fill="#f4f4f4"><path id="Path" d="m16 23.691c-.151334-.0000398-.3007091-.0342217-.437-.1-3.451-1.679-7.563-4.879-7.563-10.591 0-.5522847.44771525-1 1-1s1 .4477153 1 1c0 4.678 3.5 7.363 6.437 8.792.419881.203355.6433574.6700269.5385578 1.124637s-.5100255.7763496-.9765578.775363z"/><path id="Path" d="m9 44c-.55228475 0-1-.4477153-1-1 0-5.712 4.112-8.912 7.562-10.591.4970563-.2416246 1.0958754-.0345563 1.3375.4625s.0345563 1.0958754-.4625 1.3375c-2.937 1.428-6.437 4.113-6.437 8.791 0 .5522847-.44771525 1-1 1z"/></g></g></g></svg>