<?xml version="1.0" encoding="UTF-8"?>
<!-- Generator: Adobe Illustrator 26.0.3, SVG Export Plug-In . SVG Version: 6.00 Build 0)  -->
<svg xmlns="http://www.w3.org/2000/svg" xmlns:xlink="http://www.w3.org/1999/xlink" version="1.1" id="Capa_1" x="0px" y="0px" viewBox="0 0 512 512" style="enable-background:new 0 0 512 512;" xml:space="preserve" width="512" height="512">
<g>
	<path d="M52.171,202.168c-3.192,0.001-6.351-1.384-8.519-4.031L2.488,147.858c-1.899-2.321-2.77-5.316-2.408-8.294   c0.361-2.977,1.923-5.678,4.322-7.477C72.566,80.991,153.744,53.982,239.16,53.982c84.491,0,164.967,26.491,232.725,76.609   c2.41,1.782,3.988,4.471,4.369,7.444c0.382,2.973-0.467,5.973-2.349,8.306l-22.407,27.777l-17.123-13.812l15.095-18.713   C387.525,98.63,315.062,75.982,239.16,75.982c-76.773,0-149.909,23.11-212.265,66.958l27.267,33.304   c54.57-37.571,118.303-57.373,184.998-57.373c39.755,0,78.298,7.176,114.556,21.327l-7.998,20.494   c-33.699-13.152-69.55-19.821-106.558-19.821c-65.471,0-127.879,20.456-180.477,59.157   C56.725,201.47,54.439,202.168,52.171,202.168z"/>
	<path d="M134.85,303.155c-3.197,0-6.354-1.391-8.519-4.032l-41.05-50.139c-1.927-2.354-2.793-5.401-2.393-8.417   c0.4-3.017,2.032-5.732,4.508-7.501c44.464-31.783,96.943-48.583,151.764-48.583c0.933,0,9.321,0.019,16.447,0.674l-2.015,21.908   c-4.994-0.46-11.422-0.582-14.433-0.582c-46.259,0-90.691,13.058-129.234,37.873l27.215,33.24   c30.708-18.682,65.768-28.508,102.02-28.508c5.441,0,10.938,0.226,16.337,0.67l-1.805,21.926   c-4.802-0.396-9.691-0.596-14.532-0.596c-35.204,0-69.137,10.429-98.129,30.159C139.144,302.533,136.987,303.155,134.85,303.155z"/>
	<path d="M239.106,430.503c-3.298,0-6.422-1.479-8.512-4.031l-64.426-78.69c-2.01-2.456-2.862-5.66-2.336-8.79   c0.525-3.131,2.377-5.881,5.079-7.545c21.089-12.987,45.381-19.852,70.249-19.852c6.578,0,14.023,0.526,19.916,1.407l-3.254,21.758   c-4.879-0.729-11.107-1.165-16.662-1.165c-16.522,0-32.733,3.62-47.535,10.551l47.44,57.944l31.501-38.839l17.086,13.857   l-40.004,49.323c-2.083,2.568-5.211,4.063-8.518,4.071C239.123,430.503,239.113,430.503,239.106,430.503z"/>
	<path style="fill:#33CCCC;" d="M505.533,183.448l-123.2-55.724c-2.883-1.303-6.185-1.302-9.065-0.001L250.066,183.43   c-3.938,1.781-6.468,5.702-6.468,10.023v99.863c0,43.179,14.243,76.768,41.189,97.138l86.437,65.339   c1.962,1.483,4.297,2.225,6.633,2.225c2.337,0,4.674-0.743,6.637-2.229l86.362-65.346C497.773,370.078,512,336.504,512,293.351   v-99.88C512,189.149,509.471,185.229,505.533,183.448z M490,281.373H388.828l-0.025-126.576L490,200.568V281.373z M366.803,154.791   l0.025,126.582H265.599v-80.821L366.803,154.791z M265.889,303.373h100.943l0.024,121.539l-68.802-52.008   C278.546,358.157,267.749,334.795,265.889,303.373z M457.582,372.9l-68.726,52.001l-0.024-121.528h100.88   C487.859,334.792,477.074,358.152,457.582,372.9z"/>
</g>















</svg>
