<svg xmlns="http://www.w3.org/2000/svg" version="1.1" xmlns:xlink="http://www.w3.org/1999/xlink" xmlns:svgjs="http://svgjs.com/svgjs" width="512" height="512" x="0" y="0" viewBox="0 0 512 512" style="enable-background:new 0 0 512 512" xml:space="preserve" class=""><g><circle cx="253.284" cy="254.125" r="240.419" style="" fill="#31101000" data-original="#514bdb" class=""></circle><circle cx="292.51" cy="23.261" r="10.628" style="fill-rule:evenodd;clip-rule:evenodd;" transform="rotate(-76.714 292.532 23.254)" fill="#fe5d0d" data-original="#fe5d0d" class=""></circle><circle cx="346.007" cy="416.883" r="10.628" style="fill-rule:evenodd;clip-rule:evenodd;" transform="rotate(-45.001 346.003 416.89)" fill="#fe5d0d" data-original="#fe5d0d" class=""></circle><path d="M226.186 38.521c8.354 21.031-1.958 44.945-22.987 53.301-21.031 8.359-44.945-1.952-53.303-22.987-8.361-21.028 1.954-44.943 22.983-53.299 21.032-8.359 44.943 1.95 53.307 22.985zM160.6 64.585c6.011 15.129 23.213 22.547 38.342 16.532 15.133-6.01 22.545-23.213 16.535-38.342-6.015-15.133-23.216-22.55-38.344-16.537-15.13 6.015-22.546 23.216-16.533 38.347z" style="" fill="#fec900" data-original="#fec900" class=""></path><path d="M8.428 283.968h27.944v27.94H8.428z" style="fill-rule:evenodd;clip-rule:evenodd;" transform="rotate(-28.152 22.404 297.96)" fill="#fec900" data-original="#fec900" class=""></path><path d="M109.957 427.747h75.627v9.555h-75.627z" style="" transform="rotate(-42.26 147.745 432.493)" fill="#79bb35" data-original="#79bb35" class=""></path><path d="M144.619 467.629h53.093v9.556h-53.093z" style="" transform="rotate(-78.089 171.157 472.391)" fill="#79bb35" data-original="#79bb35" class=""></path><path d="m488.556 291.058 13.164-9.044 1.255 15.926 1.252 15.924-14.417-6.878-14.416-6.88z" style="fill-rule:evenodd;clip-rule:evenodd;" fill="#79bb35" data-original="#79bb35" class=""></path><path d="M511.924 371.544c-.027-8.654-7.065-15.647-15.715-15.619l-51.876.219-49.373-39.297 10.533 39.461-1.156.005c-8.651.028-15.642 7.067-15.613 15.72l.074 23.204c.029 8.653 7.063 15.643 15.715 15.617l91.872-.39c8.651-.028 15.641-7.064 15.614-15.718l-.075-23.202z" style="" fill="#8e8eff" data-original="#8e8eff" class=""></path><path d="M493.526 370.542H407.3a3.951 3.951 0 0 0-3.954 3.955 3.95 3.95 0 0 0 3.954 3.955h86.226a3.95 3.95 0 0 0 3.955-3.955 3.952 3.952 0 0 0-3.955-3.955zM453.735 390.319H407.3a3.95 3.95 0 0 0-3.954 3.954 3.951 3.951 0 0 0 3.954 3.954h46.434a3.95 3.95 0 0 0 3.948-3.954 3.95 3.95 0 0 0-3.947-3.954z" style="" fill="#ffffff" data-original="#ffffff"></path><path d="m99.261 360.594-1.281-.009 11.674-43.737-54.577 43.44-17.982-.125c-9.587-.032-17.388 7.72-17.419 17.312l-.084 25.718c-.03 9.593 7.718 17.391 17.307 17.422l62.166.432c9.591.029 17.387-7.719 17.419-17.31l.082-25.72c.034-9.59-7.715-17.392-17.305-17.423z" style="" fill="#8e8eff" data-original="#8e8eff" class=""></path><path d="M87.537 375.901H50.45c-8.535 0-15.453 6.918-15.453 15.453s6.919 15.453 15.453 15.453h37.088c8.534 0 15.453-6.918 15.453-15.453s-6.919-15.453-15.454-15.453z" style="" fill="#ffffff" data-original="#ffffff"></path><circle cx="87.537" cy="391.354" r="12.208" style="" transform="rotate(-13.286 87.507 391.274)" fill="#79bb35" data-original="#79bb35" class=""></circle><path d="M218.044 381.639c-19.459 19.462-19.459 51.029 0 70.496 19.471 19.452 51.031 19.452 70.498 0 19.462-19.467 19.462-51.034 0-70.496-19.467-19.462-51.027-19.462-70.498 0zM253.294 263.103c-41.066 0-79.699 15.995-108.723 45.048-11.402 11.395-11.402 29.868 0 41.257 11.393 11.398 29.855 11.398 41.258 0 18.004-18.028 41.97-27.952 67.466-27.952 25.498 0 49.462 9.925 67.466 27.952a29.13 29.13 0 0 0 20.635 8.543c7.485 0 14.927-2.845 20.626-8.543 11.402-11.388 11.402-29.859 0-41.257-29.029-29.053-67.663-45.048-108.728-45.048z" style="" fill="#1c1c1b" data-original="#1c1c1b" class=""></path><path d="M253.294 167.031c-66.741 0-129.484 25.99-176.671 73.183-11.391 11.395-11.391 29.869 0 41.258 11.403 11.395 29.876 11.395 41.258 0 36.16-36.175 84.261-56.093 135.413-56.093 51.129 0 99.232 19.918 135.397 56.093 5.689 5.699 13.179 8.546 20.621 8.546 7.484 0 14.936-2.847 20.635-8.546 11.388-11.388 11.388-29.862 0-41.258-47.188-47.192-109.909-73.183-176.653-73.183z" style="" fill="#1c1c1b" data-original="#1c1c1b" class=""></path><path d="M498.043 172.138c-65.367-65.389-152.28-101.392-244.749-101.392-92.47 0-179.383 36.003-244.749 101.392-11.393 11.397-11.393 29.87 0 41.257a29.106 29.106 0 0 0 20.635 8.545c7.463 0 14.948-2.846 20.623-8.545 54.346-54.365 126.623-84.3 203.492-84.3 76.869 0 149.126 29.935 203.475 84.3 11.388 11.397 29.848 11.386 41.255.011 11.387-11.398 11.387-29.872.018-41.268z" style="" fill="#1c1c1b" data-original="#1c1c1b" class=""></path><path d="M332.641 90.309c9.775-23.169-38.844-26.099-33.725-6.97 2.66 9.961 29.922 15.984 33.725 6.97zM365.106 77.17c-4.236-.184-12.276 4.712-10.042 12.983 2.941 10.778 59.155 38.884 69.385 31.851 14.579-10.043-25.479-43.363-59.343-44.834zM417.267 261.344c16.495-16.179-23.685-35.888-26.122-17.857-1.273 9.387 19.705 24.151 26.122 17.857z" style="fill-rule:evenodd;clip-rule:evenodd;" fill="#ffffff" data-original="#ffffff"></path></g></svg>